<?xml version="1.0" encoding="iso-8859-1"?>
<!-- Generator: Adobe Illustrator 16.0.0, SVG Export Plug-In . SVG Version: 6.00 Build 0)  -->
<!DOCTYPE svg PUBLIC "-//W3C//DTD SVG 1.1//EN" "http://www.w3.org/Graphics/SVG/1.1/DTD/svg11.dtd">
<svg version="1.1" id="Capa_1" xmlns="http://www.w3.org/2000/svg" xmlns:xlink="http://www.w3.org/1999/xlink" x="0px" y="0px"
	 width="47.001px" height="47.001px" viewBox="0 0 47.001 47.001" style="enable-background:new 0 0 47.001 47.001;"
	 xml:space="preserve">
<g>
	<path d="M40.063,21.976h5.169c0-3.144-2.574-5.716-5.721-5.716h-0.778v-4.219C38.733,3.635,31.899,0,23.498,0
		C15.097,0,8.264,3.635,8.264,12.041v1.002h6.56v-1.002c0-4.203,4.479-5.487,8.675-5.487c4.197,0,8.677,1.284,8.677,5.487v4.219
		H8.264H7.488c-3.146,0-5.721,2.572-5.721,5.716h5.168v19.307H1.769c0,3.144,2.575,5.718,5.721,5.718h32.023
		c3.146,0,5.721-2.574,5.721-5.718h-5.169L40.063,21.976L40.063,21.976z M16.28,41.282h-4.256V21.976h4.256V41.282z M25.629,41.282
		h-4.258V21.976h4.258V41.282z M34.976,41.282h-4.257V21.976h4.257V41.282z"/>
</g>
<g>
</g>
<g>
</g>
<g>
</g>
<g>
</g>
<g>
</g>
<g>
</g>
<g>
</g>
<g>
</g>
<g>
</g>
<g>
</g>
<g>
</g>
<g>
</g>
<g>
</g>
<g>
</g>
<g>
</g>
</svg>
